<svg xmlns="http://www.w3.org/2000/svg" viewBox="0 0 24 24">
  <path d="M23 5.04334c-.8098.35759-1.6826.59257-2.587.70496.9254-.54149 1.6405-1.39969 1.9771-2.43158-.8729.51083-1.8404.86842-2.8605 1.07275C18.6989 3.51084 17.5316 3 16.2065 3c-2.4713 0-4.4904 1.96161-4.4904 4.38297 0 .34737.042.68452.1156 1.00124-3.74374-.1839-7.0774-1.93096-9.29633-4.57709-.3891.64365-.60994 1.39969-.60994 2.1966 0 1.52229.78872 2.87089 2.0086 3.63715-.74665 0-1.44072-.20434-2.05066-.51084v.03065c0 2.12512 1.5564 3.90282 3.61759 4.30122-.66176.176-1.3565.2004-2.02964.0715.28563.871.84502 1.6331 1.59954 2.1792.75452.5461 1.66623.8488 2.60696.8654-1.59465 1.2265-3.57132 1.8894-5.60516 1.8799-.35755 0-.71511-.0204-1.07266-.0613 1.99809 1.2464 4.37476 1.9718 6.91969 1.9718 8.28681 0 12.84031-6.6817 12.84031-12.47459 0-.19412 0-.37802-.0105-.57214.8834-.613 1.6406-1.38947 2.2505-2.27833v0Z" fill="url(#a)" stroke="#fff" stroke-linecap="round" stroke-linejoin="round"/>
  <defs>
    <linearGradient id="a" x1="12" y1="3" x2="12" y2="20.3684" gradientUnits="userSpaceOnUse">
      <stop offset=".21875" stop-color="#DE93F1"/>
      <stop offset="1" stop-color="#005DE8"/>
      <stop offset="1" stop-color="#745EFF"/>
    </linearGradient>
  </defs>
</svg>