<svg width="24" height="24" xmlns="http://www.w3.org/2000/svg">
    <path fill="#FF0" d="M0 0h24v24H0z" />
    <circle cx="20.073" cy="20.073" r="1.745" fill="#000" />
    <path
        d="M3.31 21.818h4.725v-.41c-.74 0-1.045-.221-1.088-1.192l-.011-3.533c.06.01.108.016.155.03.232.07.349.198.477.43l1.762 3.634a.89.89 0 01.053.367c-.116.2-.233.263-.57.265v.41h5.248v-.412a1.215 1.215 0 01-.377-.296c-.06-.073-.113-.17-.19-.282l-3.425-6.33c.528-.543.849-.835 1.453-1.332.319-.255.59-.428.87-.59.33-.19.677-.358 1.166-.507v-.372h-5.15v.374c.044.015.17-.01.583.113.455.158.798.385.962.804.04.102.045.228.068.352-.036.452-.169.69-.532 1.11L8 15.81c-.34.351-.56.482-1.063.494l-.026-9.53v-.23c-.735.14-1.221.193-2.078.23-.857.038-1.526 0-1.526 0l-1.124.002v.395c.892.024 1.02.525 1.124 1.562l-.003 11.353c-.057 1.025-.302 1.31-1.12 1.322v.41h1.128z"
        fill="#000" /></svg>