<svg xmlns="http://www.w3.org/2000/svg" viewBox="0 0 71 24">
  <path d="M1.09659 16V7.27273h1.88068V16H1.09659Zm.94886-10.01705c-.3106 0-.57765-.10416-.80113-.3125-.2197-.20833-.329547-.46022-.329547-.75568 0-.29166.109847-.54166.329547-.75.22348-.20833.49053-.3125.80113-.3125.31061 0 .57576.10417.79546.3125.22348.20834.33523.45834.33523.75 0 .29546-.11175.54735-.33523.75568-.2197.20834-.48485.3125-.79546.3125ZM6.3354 10.8523V16H4.45472V7.27273h1.80113v1.45454h.10796c.20075-.47727.51894-.85795.95454-1.14204.43561-.28409.97917-.42614 1.63068-.42614.59849 0 1.12117.12689 1.56817.38068.447.25379.7936.625 1.0398 1.11364.25.48864.375 1.08712.375 1.79549V16h-1.8807v-5.2898c0-.6098-.15719-1.0852-.47158-1.42611-.3144-.3447-.74811-.51704-1.30114-.51704-.37879 0-.71402.08143-1.00568.24431-.29167.16288-.52084.39962-.6875.71023-.16667.31061-.25.68751-.25 1.13071Zm12.2772-.5284v1.5852H13.408v-1.5852h5.2046Zm5.7175-3.05117V8.75H19.438V7.27273h4.8921Zm-3.6364-2.09091h1.8807v8.22728c0 .2992.0454.5284.1363.6875.0909.1553.2103.2614.358.3182.1515.053.3163.0795.4943.0795.1326 0 .25-.0095.3523-.0284.106-.0189.1875-.0341.2443-.0454l.3295 1.5056c-.106.0341-.2556.072-.4488.1137-.1932.0454-.4299.0719-.7102.0795-.4811.0114-.9224-.0682-1.3239-.2386-.3977-.1705-.7178-.4337-.9602-.7898-.2387-.3561-.3561-.803-.3523-1.3409V5.18182Zm6.7786 5.67048V16h-1.8807V4.36364h1.8466v4.36363h.1079c.2008-.48485.5133-.86742.9375-1.14772.4281-.28031.9773-.42046 1.6478-.42046.6022 0 1.1288.125 1.5795.375.4508.25.7993.61932 1.0455 1.10796.25.48863.375 1.0909.375 1.80685V16h-1.8807v-5.2898c0-.6136-.1572-1.09088-.4716-1.43179-.3144-.34091-.7538-.51136-1.3182-.51136-.3826 0-.7254.08143-1.0284.24431-.2992.16288-.5341.39962-.7045.71023-.1705.31061-.2557.68751-.2557 1.13071ZM34.5903 16V7.27273h1.8807V16h-1.8807Zm.9489-10.01705c-.3106 0-.5776-.10416-.8011-.3125-.2197-.20833-.3296-.46022-.3296-.75568 0-.29166.1099-.54166.3296-.75.2235-.20833.4905-.3125.8011-.3125.3106 0 .5758.10417.7955.3125.2234.20834.3352.45834.3352.75 0 .29546-.1118.54735-.3352.75568-.2197.20834-.4849.3125-.7955.3125Zm9.1309 3.51137-1.7103.23863c-.0568-.19318-.1534-.375-.2897-.54545-.1326-.17424-.3125-.31629-.5398-.42614-.2273-.10985-.5095-.16477-.8466-.16477-.4546 0-.8352.10038-1.1421.30114-.303.20075-.4545.46022-.4545.77841 0 .27272.1023.49246.3068.65906.2046.1667.536.305.9943.4148l1.4432.3182c.8144.1818 1.4205.4659 1.8182.8523.3977.3863.5985.8901.6023 1.5113-.0038.5379-.161 1.0133-.4716 1.4262-.3068.409-.7349.731-1.2841.9659-.5455.2348-1.1761.3522-1.8921.3522-1.0265 0-1.856-.2159-2.4886-.6477-.6326-.4356-1.017-1.0473-1.1534-1.8352l1.8239-.2273c.0985.4129.3011.7254.6079.9375.3068.2083.7065.3125 1.1989.3125.5227 0 .9413-.1079 1.2557-.3239.3144-.2197.4735-.4867.4772-.8011-.0037-.2651-.1041-.4829-.3011-.6534-.1932-.1742-.4962-.3068-.9091-.3977l-1.4773-.3239c-.8295-.178-1.4412-.4716-1.8352-.8807-.3939-.4129-.589-.9318-.5852-1.55679-.0038-.52652.1401-.98485.4318-1.375.2917-.39394.697-.69886 1.2159-.91477.5227-.2197 1.1231-.32955 1.8011-.32955.9811 0 1.7538.21212 2.3182.63636.5682.42046.93.98675 1.0853 1.69887Z" fill="#fff"/>
  <path fill-rule="evenodd" clip-rule="evenodd" d="M3.39089 19.2149c.20367.113.69017.6132 1.08115 1.1115.90591 1.1551 1.28039 1.1778 2.07026.1249 1.42416-1.8982 2.33811-1.9287 3.7528-.1249.9405 1.199 1.2427 1.1856 2.2508-.1 1.2717-1.6222 2.1426-1.6228 3.4573-.0026 1.0632 1.3103 1.3401 1.3107 2.3658.0026 1.2751-1.6264 2.1705-1.6264 3.4456 0 1.0304 1.3141 1.3197 1.3147 2.3469.0046 1.2793-1.6318 2.1996-1.633 3.4762-.0046 1.0081 1.2856 1.3104 1.299 2.2508.1 1.4147-1.8038 2.3287-1.7733 3.7529.1249.7898 1.0529 1.1643 1.0302 2.0702-.1249 1.4147-1.8038 2.3287-1.7733 3.7529.1249.7909 1.0543 1.1179 1.0203 2.1376-.2217 1.3777-1.6777 2.2739-1.5997 3.6192.3153.8359 1.1898.9763 1.7462.5291 2.0952-.3993.3114-.4315.2908-1.257-.8027-1.1268-1.4928-1.2021-1.4991-2.1794-.1782-.2968.4013-.6612.8206-.8092.9314-.9273.6939-2.1101.3096-2.9386-.9549-.8056-1.2293-1.1089-1.2345-2.0172-.0355-.7423.9797-.8644 1.0785-1.6496 1.3325-.5792.1875-1.5767-.4125-2.1563-1.297-.8056-1.2293-1.1089-1.2345-2.0172-.0355-.7423.9797-.8644 1.0785-1.6496 1.3325-.5966.193-1.5776-.4116-2.1703-1.3378-.7247-1.1323-1.2033-1.1361-2.0021-.0154-.3209.4501-.7082.9072-.8607 1.0155-.9759.6942-2.1244.3062-2.9603-1.0001-.7364-1.1505-1.2458-1.1505-1.9821 0-.8359 1.3063-1.9844 1.6943-2.9604 1.0001-.1525-.1083-.5397-.5654-.8607-1.0155-.7987-1.1207-1.2773-1.1169-2.002.0154-.5927.9262-1.5738 1.5308-2.1704 1.3378-.7851-.254-.9073-.3528-1.64957-1.3325-.90827-1.199-1.21162-1.1938-2.01715.0355-.52422.8001-1.59539 1.5078-2.02727 1.3392-.12423-.0485-.39833-.144-.60907-.2126-.21088-.0683-.72623-.5769-1.14535-1.1302-.41913-.5531-.83201-1.0058-.91756-1.0058-.26023 0-.99367.7445-1.48184 1.5041-.499951.7781-.59631.827-1.003095.5097-.452261-.3529-.3105656-.9844.459748-2.0485C1.79785 19.0969 2.5134 18.7287 3.39089 19.2149Z" fill="#F24822"/>
  <path d="M70 5.99159c-.7361.32353-1.5296.53614-2.3518.63782.8413-.48992 1.4914-1.26639 1.7973-2.2-.7935.46218-1.673.78571-2.6004.97059-.7552-.79496-1.8164-1.25715-3.021-1.25715-2.2467 0-4.0822 1.77479-4.0822 3.96555 0 .31428.0382.61933.1051.90588-3.4034-.16638-6.434-1.74706-8.4512-4.14118-.3537.58236-.5545 1.26639-.5545 1.9874 0 1.37731.717 2.59748 1.826 3.2908-.6788 0-1.3097-.18492-1.8642-.46223v.02773c0 1.9227 1.4149 3.5311 3.2887 3.8916-.6016.1592-1.2332.1813-1.8451.0647.2596.788.7682 1.4775 1.4541 1.9716s1.5147.768 2.3699.783c-1.4496 1.1097-3.2466 1.7095-5.0956 1.7009-.325 0-.6501-.0185-.9751-.0555 1.8164 1.1277 3.9771 1.784 6.2906 1.784 7.5335 0 11.6731-6.0453 11.6731-11.28652 0-.17563 0-.34201-.0096-.51764.8031-.55463 1.4914-1.25715 2.0459-2.06135v0Z" fill="url(#a)" stroke="#fff" stroke-linecap="round" stroke-linejoin="round"/>
  <defs>
    <linearGradient id="a" x1="60" y1="4.14285" x2="60" y2="19.8571" gradientUnits="userSpaceOnUse">
      <stop offset=".21875" stop-color="#DE93F1"/>
      <stop offset="1" stop-color="#005DE8"/>
      <stop offset="1" stop-color="#745EFF"/>
    </linearGradient>
  </defs>
</svg>