<svg xmlns="http://www.w3.org/2000/svg" viewBox="0 0 337 281">
  <path d="M24.6195 62.9598c0 11.4849 2.777 22.3644 7.7411 31.9642-1.0756.2706-2.118.706-3.0884 1.3044-3.2483 2.0031-5.2263 5.5466-5.2263 9.3626v.418c0 21.008 9.3422 39.797 24.0873 52.728-2.3302 2.893-3.0498 6.779-1.8857 10.329 4.6302 14.118 13.6794 26.415 25.8147 35.198 4.0795 2.953 8.4404 5.46 13.0047 7.498-14.7359 6.632-30.9033 10.105-47.3883 10.028l-.0514-.001c-4.4557 0-8.9144-.254-13.3781-.764-5.1088-.584-9.9405 2.449-11.6348 7.304-1.6943 4.855.2009 10.236 4.5637 12.958 28.9474 18.057 63.3662 28.555 100.181 28.555 120.052 0 186.096-97.062 186.096-181.1082v-.1171c0-.8543 0-1.7293-.006-2.6249 2.847-2.9342 5.036-6.3549 6.741-9.5507 2.796-5.2383 5.007-11.2528 6.814-17.0155 1.822-5.8066 3.358-11.7703 4.681-16.9579l.198-.7764c1.278-5.0168 2.3-9.0255 3.258-11.9619 1.416-4.343.001-9.1095-3.556-11.9758-3.558-2.8663-8.516-3.2358-12.459-.9284-2.7 1.5804-5.471 3.3051-8.149 4.9715-.432.2688-.861.5362-1.288.8011-3.135 1.9482-6.183 3.8205-9.245 5.5455-4.126 2.3248-8.001 4.2192-11.685 5.5377C266.997 22.454 250.333 11 230.361 11c-39.507 0-72.233 31.4096-72.233 70.7678 0 .5061.006 1.0107.017 1.5137-42.567-5.4179-80.0652-26.6785-105.7794-57.3433-2.2813-2.7205-5.7354-4.1726-9.2753-3.8994-3.5399.2733-6.7302 2.2383-8.567 5.2767-6.3247 10.4623-9.9038 22.7348-9.9038 35.6443Z" fill="url(#a)" stroke="#fff" stroke-width="22" stroke-linecap="round" stroke-linejoin="round"/>
  <defs>
    <linearGradient id="a" x1="168.841" y1="22" x2="168.841" y2="258.842" gradientUnits="userSpaceOnUse">
      <stop offset=".197917" stop-color="#DE93F1"/>
      <stop offset="1" stop-color="#2243F2"/>
    </linearGradient>
  </defs>
</svg>