<svg xmlns="http://www.w3.org/2000/svg" viewBox="0 0 383 327">
  <path d="M303.946 43.1904C291.438 32.6351 274.198 22.5 253.361 22.5c-41.56 0-76.948 30.1665-82.864 70.3498-34.635-7.1978-64.903-25.7616-86.3195-51.3008-4.6663-5.5647-11.7315-8.535-18.9722-7.9761-7.2407.5589-13.7665 4.5783-17.5235 10.7932-7.3897 12.2241-11.5623 26.5487-11.5623 41.5937 0 9.7769 1.7296 19.1802 4.919 27.9002-3.4943 4.035-5.4926 9.245-5.4926 14.731v.418c0 21.54 8.3963 40.996 22.0222 55.574-.6658 3.634-.4384 7.436.7521 11.066 4.5122 13.759 12.6123 26 23.3627 35.592-6.8414 1.386-13.8612 2.082-20.9504 2.049l-.1053-.001c-4.0165 0-8.0392-.229-12.0721-.69-10.4499-1.194-20.3329 5.01-23.7986 14.941-3.4657 9.93.4109 20.937 9.3348 26.504 30.7255 19.167 67.2457 30.298 106.2677 30.298 126.699 0 196.796-102.11 197.589-191.084 2.277-2.925 4.036-5.869 5.388-8.403 3.282-6.1492 5.743-12.9351 7.641-18.9873 1.927-6.1421 3.533-12.387 4.851-17.5588l.11-.4294c1.36-5.3349 2.299-9.0176 3.136-11.5845 2.897-8.8835.002-18.6331-7.274-24.496-7.276-5.8628-17.418-6.6186-25.482-1.8989-2.848 1.6664-5.769 3.4846-8.436 5.1451-.428.266-.849.528-1.262.7847-3.126 1.9422-5.992 3.7006-8.821 5.2943-1.36.7663-2.642 1.4537-3.853 2.0662Z" fill="url(#a)" stroke="#fff" stroke-width="45" stroke-linecap="round" stroke-linejoin="round"/>
  <defs>
    <linearGradient id="a" x1="191.841" y1="45" x2="191.841" y2="281.842" gradientUnits="userSpaceOnUse">
      <stop offset=".197917" stop-color="#DE93F1"/>
      <stop offset="1" stop-color="#2243F2"/>
    </linearGradient>
  </defs>
</svg>