<svg xmlns="http://www.w3.org/2000/svg" width="500" height="275" fill="none">
  <path fill="#232323" d="M0 0h500v274.336H0z"/>
  <path d="M152.456 151v-26.182h5.642V151h-5.642Zm2.847-30.051c-.932 0-1.733-.313-2.403-.938-.659-.625-.989-1.38-.989-2.267 0-.875.33-1.625.989-2.25.67-.625 1.471-.937 2.403-.937.932 0 1.727.312 2.386.937.671.625 1.006 1.375 1.006 2.25 0 .887-.335 1.642-1.006 2.267-.659.625-1.454.938-2.386.938Zm12.87 14.608V151h-5.642v-26.182h5.403v4.364h.324c.602-1.432 1.557-2.574 2.864-3.426 1.307-.853 2.937-1.279 4.892-1.279 1.795 0 3.363.381 4.704 1.142 1.341.762 2.381 1.875 3.12 3.341.75 1.466 1.125 3.262 1.125 5.387V151h-5.642v-15.869c0-1.83-.472-3.256-1.415-4.279-.943-1.034-2.244-1.551-3.904-1.551-1.136 0-2.142.244-3.017.733s-1.562 1.199-2.062 2.131c-.5.932-.75 2.062-.75 3.392Zm36.831-1.585v4.755h-15.613v-4.755h15.613Zm17.153-9.154v4.432h-14.676v-4.432h14.676Zm-10.909-6.273h5.642v24.682c0 .898.136 1.585.409 2.063.273.466.631.784 1.074.954.454.159.949.239 1.483.239.397 0 .75-.028 1.057-.085.318-.057.562-.103.732-.137l.989 4.517c-.318.103-.767.216-1.346.341-.58.137-1.29.216-2.131.239-1.443.034-2.767-.205-3.972-.716-1.193-.511-2.153-1.301-2.88-2.369-.716-1.068-1.069-2.409-1.057-4.023v-25.705Zm20.335 17.012V151h-5.642v-34.909h5.54v13.091h.324c.602-1.455 1.54-2.602 2.813-3.443 1.284-.841 2.931-1.262 4.943-1.262 1.807 0 3.386.375 4.738 1.125 1.353.75 2.398 1.858 3.137 3.324.75 1.466 1.125 3.273 1.125 5.421V151h-5.642v-15.869c0-1.841-.472-3.273-1.415-4.296-.943-1.023-2.261-1.534-3.955-1.534-1.147 0-2.176.244-3.085.733-.898.489-1.602 1.199-2.113 2.131-.512.932-.768 2.062-.768 3.392ZM252.938 151v-26.182h5.642V151h-5.642Zm2.846-30.051c-.932 0-1.733-.313-2.403-.938-.659-.625-.989-1.38-.989-2.267 0-.875.33-1.625.989-2.25.67-.625 1.471-.937 2.403-.937.932 0 1.728.312 2.387.937.67.625 1.005 1.375 1.005 2.25 0 .887-.335 1.642-1.005 2.267-.659.625-1.455.938-2.387.938Zm27.393 10.534-5.131.716c-.17-.58-.46-1.125-.869-1.637-.398-.522-.938-.948-1.619-1.278-.682-.329-1.529-.494-2.54-.494-1.364 0-2.506.301-3.426.903-.909.602-1.364 1.381-1.364 2.335 0 .819.307 1.478.92 1.978.614.5 1.608.914 2.983 1.244l4.33.955c2.443.545 4.261 1.397 5.454 2.556 1.194 1.159 1.796 2.671 1.807 4.534-.011 1.614-.483 3.04-1.414 4.279-.921 1.227-2.205 2.193-3.853 2.898-1.636.704-3.528 1.056-5.676 1.056-3.079 0-5.568-.647-7.466-1.943-1.898-1.307-3.051-3.142-3.46-5.505l5.472-.682c.295 1.238.903 2.176 1.823 2.812.921.625 2.12.938 3.597.938 1.568 0 2.824-.324 3.767-.972.943-.659 1.421-1.46 1.432-2.403-.011-.796-.313-1.449-.904-1.961-.579-.522-1.488-.92-2.727-1.193l-4.432-.971c-2.488-.534-4.323-1.415-5.505-2.642-1.182-1.239-1.767-2.796-1.756-4.671-.011-1.579.42-2.954 1.295-4.125.875-1.182 2.091-2.096 3.648-2.744 1.568-.659 3.37-.989 5.404-.989 2.943 0 5.261.637 6.954 1.909 1.705 1.262 2.79 2.961 3.256 5.097Z" fill="#fff"/>
  <path fill-rule="evenodd" clip-rule="evenodd" d="M159.266 156.537c.606.283 2.055 1.533 3.22 2.779 2.698 2.888 3.813 2.944 6.165.312 4.242-4.745 6.964-4.821 11.177-.312 2.801 2.997 3.701 2.964 6.704-.25 3.787-4.055 6.381-4.057 10.296-.007 3.167 3.276 3.992 3.277 7.046.007 3.798-4.066 6.465-4.066 10.262 0 3.069 3.285 3.931 3.287 6.99.012 3.81-4.08 6.551-4.083 10.353-.012 3.002 3.214 3.903 3.247 6.703.25 4.214-4.509 6.936-4.433 11.177.312 2.353 2.632 3.468 2.576 6.166-.312 4.214-4.509 6.936-4.433 11.177.312 2.356 2.636 3.329 2.551 6.367-.554 4.103-4.194 6.772-3.999 10.778.788 2.49 2.975 2.908 4.366 1.576 5.238-1.189.779-1.285.727-3.743-2.006-3.356-3.732-3.58-3.748-6.491-.446-.884 1.003-1.969 2.052-2.41 2.328-2.762 1.735-6.285.774-8.752-2.387-2.399-3.073-3.303-3.086-6.008-.089-2.211 2.45-2.574 2.697-4.913 3.332-1.725.469-4.696-1.031-6.422-3.243-2.399-3.073-3.302-3.086-6.008-.089-2.21 2.45-2.574 2.697-4.912 3.332-1.777.482-4.699-1.029-6.464-3.345-2.159-2.83-3.584-2.84-5.963-.038-.956 1.125-2.109 2.268-2.563 2.539-2.907 1.735-6.328.765-8.817-2.501-2.193-2.876-3.71-2.876-5.903 0-2.49 3.266-5.91 4.236-8.817 2.501-.454-.271-1.607-1.414-2.563-2.539-2.379-2.802-3.805-2.792-5.963.038-1.765 2.316-4.687 3.827-6.464 3.345-2.338-.635-2.702-.882-4.913-3.332-2.705-2.997-3.608-2.984-6.007.089-1.562 2-4.752 3.77-6.038 3.348-.37-.121-1.186-.36-1.814-.531-.628-.171-2.163-1.443-3.411-2.826-1.248-1.383-2.478-2.514-2.733-2.514-.775 0-2.959 1.861-4.413 3.76-1.489 1.945-1.776 2.067-2.988 1.274-1.347-.882-.925-2.461 1.37-5.121 3.221-3.737 5.352-4.657 7.966-3.442Z" fill="#F24822"/>
  <path d="M351.167 120.294c-2.098.927-4.36 1.535-6.703 1.827 2.398-1.403 4.25-3.627 5.122-6.3-2.261 1.323-4.768 2.25-7.411 2.779-2.152-2.276-5.177-3.6-8.61-3.6-6.403 0-11.634 5.082-11.634 11.356 0 .9.109 1.773.3 2.594-9.7-.476-18.337-5.003-24.086-11.859-1.008 1.668-1.581 3.627-1.581 5.691 0 3.944 2.044 7.439 5.204 9.424-1.934 0-3.732-.53-5.313-1.324v.08c0 5.506 4.033 10.112 9.373 11.144-1.714.456-3.514.519-5.258.185.74 2.257 2.189 4.231 4.144 5.646s4.317 2.199 6.754 2.242c-4.131 3.178-9.253 4.896-14.522 4.871-.927 0-1.853-.053-2.779-.159 5.177 3.23 11.334 5.109 17.928 5.109 21.47 0 33.268-17.312 33.268-32.321 0-.503 0-.979-.027-1.482 2.289-1.588 4.25-3.6 5.831-5.903v0Z" fill="url(#a)" stroke="#fff" stroke-width="4" stroke-linecap="round" stroke-linejoin="round"/>
  <defs>
    <linearGradient id="a" x1="322.667" y1="115" x2="322.667" y2="160" gradientUnits="userSpaceOnUse">
      <stop offset=".21875" stop-color="#DE93F1"/>
      <stop offset="1" stop-color="#005DE8"/>
      <stop offset="1" stop-color="#745EFF"/>
    </linearGradient>
  </defs>
</svg>