<svg xmlns="http://www.w3.org/2000/svg" viewBox="0 0 235 188">
  <style>
    path {
      stroke: #000;
      }

    @media (prefers-color-scheme: dark) {
      path {
        stroke: #fff;
      }
    }  
  </style>
  <path d="M230 25.8978c-8.282 3.6572-17.208 6.0604-26.458 7.2098 9.465-5.5379 16.778-14.315 20.22-24.86844-8.927 5.22444-18.822 8.88154-29.254 10.97134C186.011 10.2245 174.073 5 160.521 5c-25.275 0-45.925 20.0619-45.925 44.8259 0 3.5526.43 7.0007 1.183 10.2399-38.2885-1.8808-72.3827-19.7485-95.0763-46.8112-3.9795 6.5829-6.2381 14.3151-6.2381 22.4652 0 15.5689 8.0665 29.3615 20.5426 37.1982-7.6363 0-14.7347-2.0898-20.9728-5.2245v.3135c0 21.7337 15.9178 39.915 36.9981 43.99-6.768 1.799-13.8732 2.05-20.7576.731 2.9212 8.908 8.6422 16.702 16.3589 22.287 7.7167 5.585 17.0409 8.681 26.6621 8.851-16.309 12.543-36.5249 19.323-57.3255 19.226-3.6568 0-7.31361-.209-10.9704-.627 20.435 12.748 44.7419 20.167 70.7696 20.167 84.7514 0 131.3214-68.336 131.3214-127.5817 0-1.9853 0-3.8661-.107-5.8514 9.034-6.2693 16.778-14.2105 23.016-23.3011v0Z" fill="url(#a)" stroke="#fff" stroke-width="10" stroke-linecap="round" stroke-linejoin="round"/>
  <defs>
    <linearGradient id="a" x1="117.5" y1="5" x2="117.5" y2="182.632" gradientUnits="userSpaceOnUse">
      <stop offset=".21875" stop-color="#DE93F1"/>
      <stop offset="1" stop-color="#005DE8"/>
      <stop offset="1" stop-color="#745EFF"/>
    </linearGradient>
  </defs>
</svg>