<?xml version="1.0" standalone="no"?>
<!DOCTYPE svg PUBLIC "-//W3C//DTD SVG 20010904//EN"
 "http://www.w3.org/TR/2001/REC-SVG-20010904/DTD/svg10.dtd">
<svg version="1.0" xmlns="http://www.w3.org/2000/svg"
 width="700.000000pt" height="700.000000pt" viewBox="0 0 700.000000 700.000000"
 preserveAspectRatio="xMidYMid meet">
<metadata>
Created by potrace 1.14, written by Peter Selinger 2001-2017
</metadata>
<g transform="translate(0.000000,700.000000) scale(0.100000,-0.100000)"
fill="#000000" stroke="none">
<path d="M0 3500 l0 -3500 3500 0 3500 0 0 3500 0 3500 -3500 0 -3500 0 0
-3500z m4515 2205 c143 -29 295 -89 436 -170 l47 -27 93 55 c117 69 200 97
309 104 254 16 487 -125 595 -360 75 -163 73 -278 -9 -582 -78 -288 -116 -400
-185 -540 -56 -114 -59 -125 -65 -215 -19 -294 -116 -662 -255 -970 -152 -335
-348 -618 -610 -881 -223 -224 -455 -394 -724 -530 -315 -160 -619 -253 -1002
-305 -181 -25 -608 -25 -785 -1 -354 49 -638 134 -939 278 -217 104 -343 183
-414 259 -190 200 -224 486 -89 730 74 134 238 258 387 291 44 10 55 16 51 28
-24 71 -56 186 -56 201 0 9 -25 54 -56 100 -105 158 -180 336 -221 530 -26
126 -25 374 3 451 20 57 20 58 1 165 -22 132 -19 402 8 521 36 165 114 353
193 470 78 116 206 207 347 249 81 24 239 24 319 0 137 -41 190 -78 356 -245
85 -87 182 -178 215 -203 136 -103 300 -199 425 -248 l49 -19 35 72 c210 436
656 751 1142 807 108 12 302 5 399 -15z"/>
<path d="M1650 3755 c0 -56 90 -227 169 -319 72 -85 94 -135 97 -229 2 -65 8
-90 37 -150 46 -96 78 -141 166 -233 95 -99 125 -163 125 -259 -1 -83 -24
-143 -80 -205 -84 -92 -212 -124 -510 -124 l-191 -1 31 -19 c58 -36 261 -134
336 -164 289 -114 522 -160 846 -169 449 -12 796 61 1164 243 541 269 951 738
1155 1324 33 96 85 285 85 309 0 8 -505 11 -1715 11 -1498 0 -1715 -2 -1715
-15z"/>
</g>
</svg>
