<?xml version="1.0" standalone="no"?>
<!DOCTYPE svg PUBLIC "-//W3C//DTD SVG 20010904//EN"
 "http://www.w3.org/TR/2001/REC-SVG-20010904/DTD/svg10.dtd">
<svg version="1.0" xmlns="http://www.w3.org/2000/svg"
 width="700.000000pt" height="700.000000pt" viewBox="0 0 700.000000 700.000000"
 preserveAspectRatio="xMidYMid meet">
<metadata>
Created by potrace 1.14, written by Peter Selinger 2001-2017
</metadata>
<g transform="translate(0.000000,700.000000) scale(0.100000,-0.100000)"
fill="#000000" stroke="none">
<path d="M0 3500 l0 -3500 3500 0 3500 0 0 3500 0 3500 -3500 0 -3500 0 0
-3500z m4320 1250 c86 -29 147 -61 208 -109 28 -23 56 -41 62 -41 27 0 204 64
275 100 44 22 90 40 102 40 24 0 63 -43 63 -70 0 -9 -22 -60 -49 -113 -26 -53
-47 -97 -45 -97 1 0 23 9 49 20 26 11 55 20 66 20 28 0 59 -36 59 -68 0 -46
-124 -200 -239 -296 l-68 -56 -6 -123 c-33 -623 -385 -1196 -923 -1500 -446
-252 -1026 -306 -1532 -142 -122 40 -382 164 -418 200 -29 29 -31 68 -5 94 18
18 34 19 178 19 220 -1 357 27 536 109 l77 36 -97 48 c-153 74 -252 170 -324
313 -45 91 -50 137 -16 161 l22 17 -75 76 c-77 79 -137 176 -166 269 -21 70
-35 199 -24 229 13 33 50 49 87 36 l29 -10 -43 87 c-92 182 -97 390 -13 570
66 140 80 138 241 -21 152 -151 271 -237 454 -328 186 -93 369 -150 563 -175
l52 -7 0 69 c1 345 276 641 624 672 97 8 221 -4 296 -29z"/>
<path d="M2246 3578 c27 -52 144 -162 204 -193 30 -16 87 -38 125 -50 78 -24
103 -51 91 -98 -10 -39 -41 -54 -143 -69 l-93 -13 44 -56 c84 -107 219 -182
359 -201 98 -12 126 -24 133 -55 12 -46 -4 -71 -79 -121 -150 -102 -360 -188
-517 -213 -41 -6 -79 -15 -84 -20 -12 -11 189 -73 324 -101 99 -19 145 -23
325 -23 226 0 301 9 480 55 536 139 963 539 1149 1078 20 57 36 106 36 108 0
2 -533 4 -1185 4 l-1186 0 17 -32z"/>
</g>
</svg>
